<?xml version="1.0" standalone="no"?>
<!DOCTYPE svg PUBLIC "-//W3C//DTD SVG 20010904//EN"
 "http://www.w3.org/TR/2001/REC-SVG-20010904/DTD/svg10.dtd">
<svg version="1.0" xmlns="http://www.w3.org/2000/svg"
 width="260.000000pt" height="260.000000pt" viewBox="0 0 260.000000 260.000000"
 preserveAspectRatio="xMidYMid meet">
<metadata>
Created by potrace 1.11, written by Peter Selinger 2001-2013
</metadata>
<g transform="translate(0.000000,260.000000) scale(0.100000,-0.100000)"
fill="#000000" stroke="none">
<path d="M0 1300 l0 -1300 1300 0 c1125 0 1300 2 1300 14 0 8 -5 18 -10 21 -6
4 -7 12 -4 18 4 7 -1 4 -11 -5 -17 -15 -20 -15 -44 0 -22 14 -24 14 -14 1 11
-13 10 -15 -5 -14 -9 0 -23 4 -30 9 -7 4 -12 2 -12 -6 0 -10 -2 -10 -9 1 -6 9
-11 10 -15 2 -5 -7 -16 -5 -34 6 -22 15 -25 15 -15 2 11 -13 10 -15 -5 -14 -9
0 -23 4 -30 9 -7 4 -12 2 -12 -6 0 -10 -2 -10 -9 1 -6 9 -11 10 -15 2 -5 -7
-16 -5 -34 6 -22 15 -25 15 -15 2 11 -13 10 -15 -5 -14 -9 0 -23 4 -30 9 -7 4
-12 2 -12 -6 0 -10 -2 -10 -9 1 -6 9 -11 10 -15 2 -5 -7 -16 -5 -34 6 -22 15
-25 15 -15 2 11 -13 10 -15 -5 -14 -9 0 -23 4 -30 9 -7 4 -12 2 -12 -6 0 -10
-2 -10 -9 1 -6 9 -11 10 -15 2 -5 -7 -16 -5 -34 6 -22 15 -25 15 -15 2 11 -13
10 -15 -5 -14 -9 0 -23 4 -30 9 -7 4 -12 2 -12 -6 0 -10 -2 -10 -9 1 -6 9 -11
10 -15 2 -5 -7 -16 -5 -34 6 -22 15 -25 15 -15 2 11 -13 10 -15 -5 -14 -9 0
-23 4 -30 9 -7 4 -12 2 -12 -6 0 -10 -2 -10 -9 1 -6 9 -11 10 -15 2 -5 -7 -16
-5 -34 6 -22 15 -25 15 -15 2 11 -13 10 -15 -5 -14 -9 0 -23 4 -30 9 -7 4 -12
2 -12 -6 0 -10 -2 -10 -9 1 -6 9 -11 10 -15 2 -5 -7 -16 -5 -34 6 -22 15 -25
15 -15 2 11 -13 10 -15 -5 -14 -9 0 -23 4 -30 9 -7 4 -12 2 -12 -6 0 -10 -2
-10 -9 1 -6 9 -11 10 -15 2 -5 -7 -16 -5 -34 6 -22 15 -25 15 -15 2 11 -13 10
-15 -5 -14 -9 0 -23 4 -30 9 -7 4 -12 2 -12 -6 0 -10 -2 -10 -9 1 -6 9 -11 10
-15 2 -5 -7 -16 -5 -34 6 -22 15 -25 15 -15 2 11 -13 10 -15 -5 -14 -9 0 -23
4 -30 9 -7 4 -12 2 -12 -6 0 -10 -2 -10 -9 1 -6 9 -11 10 -15 2 -5 -7 -16 -5
-34 6 -22 15 -25 15 -15 2 11 -13 10 -15 -5 -14 -9 0 -23 4 -30 9 -7 4 -12 2
-12 -6 0 -10 -2 -10 -9 1 -6 9 -11 10 -15 2 -5 -7 -16 -5 -34 6 -22 15 -25 15
-15 2 11 -13 10 -15 -5 -14 -9 0 -23 4 -30 9 -7 4 -12 2 -12 -6 0 -10 -2 -10
-9 1 -6 9 -11 10 -15 2 -5 -7 -16 -5 -34 6 -22 15 -25 15 -15 2 11 -13 10 -15
-5 -14 -9 0 -23 4 -30 9 -7 4 -12 2 -12 -6 0 -10 -2 -10 -9 1 -6 9 -11 10 -15
2 -5 -7 -16 -5 -34 6 -22 15 -25 15 -15 2 11 -13 10 -15 -5 -14 -9 0 -23 4
-30 9 -7 4 -12 2 -12 -6 0 -10 -2 -10 -9 1 -6 9 -11 10 -15 2 -5 -7 -16 -5
-34 6 -22 15 -25 15 -15 2 11 -13 10 -15 -5 -14 -9 0 -23 4 -30 9 -7 4 -12 2
-12 -6 0 -10 -2 -10 -9 1 -6 9 -11 10 -15 2 -5 -7 -16 -5 -34 6 -22 15 -25 15
-15 2 11 -13 10 -15 -5 -14 -9 0 -23 4 -30 9 -7 4 -12 2 -12 -6 0 -10 -2 -10
-9 1 -6 9 -11 10 -15 2 -5 -7 -16 -5 -34 6 -22 15 -25 15 -15 2 11 -13 10 -15
-5 -14 -9 0 -23 4 -30 9 -7 4 -12 2 -12 -6 0 -10 -2 -10 -9 1 -6 9 -11 10 -15
2 -5 -7 -16 -5 -34 6 -22 15 -25 15 -15 2 11 -13 10 -15 -5 -14 -9 0 -23 4
-30 9 -7 4 -12 2 -12 -6 0 -10 -2 -10 -9 1 -6 9 -11 10 -15 2 -5 -7 -16 -5
-34 6 -22 15 -25 15 -15 2 11 -13 10 -15 -5 -14 -9 0 -23 4 -30 9 -7 4 -12 2
-12 -6 0 -10 -2 -10 -9 1 -6 9 -11 10 -15 2 -5 -7 -16 -5 -34 6 -22 15 -25 15
-15 2 11 -13 10 -15 -5 -14 -9 0 -23 4 -30 9 -7 4 -12 2 -12 -6 0 -10 -2 -10
-9 1 -6 9 -10 10 -16 2 -5 -9 -10 -9 -21 0 -11 9 -14 8 -14 -2 0 -11 -2 -11
-10 1 -7 11 -10 11 -10 2 0 -7 -5 -10 -11 -7 -6 4 -8 13 -5 21 3 7 0 11 -7 8
-9 -3 -13 7 -14 31 0 23 3 33 11 28 8 -5 8 -3 0 8 -11 15 -12 84 -1 95 4 4 1
14 -6 22 -9 12 -9 16 0 19 10 4 10 10 2 25 -8 16 -8 23 2 29 8 5 9 9 3 9 -13
0 -15 31 -2 47 5 6 5 14 0 17 -10 6 -9 62 1 72 4 4 2 14 -5 21 -9 11 -9 16 2
23 10 6 11 13 4 22 -12 15 -12 48 -1 65 4 6 4 14 -1 17 -10 6 -9 82 1 92 4 4
1 14 -6 22 -9 12 -9 16 0 19 10 4 10 10 2 25 -8 16 -8 23 2 29 8 5 9 9 3 9
-12 0 -13 48 -1 67 4 6 3 14 -3 18 -17 10 -12 38 6 31 9 -3 12 -2 9 4 -4 7 3
9 20 6 20 -4 25 -1 22 8 -3 8 9 27 26 42 17 16 25 20 17 10 -14 -18 -13 -19 2
-13 9 3 19 1 22 -6 2 -7 5 -4 5 7 1 12 6 16 16 12 12 -4 13 -2 5 13 -8 17 -6
19 15 16 16 -1 25 3 25 12 0 8 5 11 10 8 6 -4 8 -11 5 -16 -4 -5 6 -4 22 2 15
6 29 9 30 7 1 -2 5 1 10 6 5 5 3 6 -4 2 -8 -4 -11 -2 -8 6 3 8 15 14 25 15 11
1 18 -2 15 -8 -4 -5 3 -9 14 -9 12 0 21 -5 21 -11 0 -5 -5 -7 -12 -3 -7 4 -8
3 -4 -5 6 -9 11 -9 22 0 12 9 13 9 9 -3 -4 -9 1 -22 9 -31 8 -8 12 -18 8 -23
-4 -5 1 -2 11 5 20 15 23 2 4 -18 -9 -11 -9 -13 0 -7 8 4 13 1 13 -8 0 -8 6
-17 13 -20 6 -3 1 -3 -13 0 -21 4 -22 3 -7 -6 9 -6 15 -15 12 -20 -3 -4 2 -11
11 -14 8 -3 12 -2 9 4 -3 6 -2 10 3 10 5 0 12 -11 14 -25 3 -14 1 -25 -3 -25
-5 0 -12 -12 -15 -26 -4 -17 -11 -23 -22 -19 -11 4 -12 2 -5 -7 7 -9 4 -18 -9
-31 -20 -19 -25 -9 -6 13 11 12 10 12 -3 2 -9 -6 -19 -9 -23 -5 -4 4 -4 0 0
-10 3 -10 1 -17 -5 -17 -6 0 -11 5 -11 11 0 8 -6 7 -17 -2 -9 -8 -14 -9 -10
-3 4 7 0 14 -8 17 -11 5 -12 1 -5 -21 l10 -27 -22 25 c-16 18 -20 20 -14 6 3
-10 2 -24 -3 -30 -7 -8 -4 -12 12 -13 12 -1 23 -7 25 -13 14 -40 92 -88 92
-57 0 9 6 18 13 20 6 3 2 6 -10 6 -12 1 -24 5 -27 10 -4 5 3 7 14 4 16 -4 19
-2 14 11 -4 10 -1 16 9 16 10 0 15 7 12 19 -3 14 1 18 11 14 10 -4 12 0 7 13
-7 18 -6 18 11 1 23 -22 24 -22 20 9 -2 22 0 24 14 12 9 -7 20 -17 24 -22 4
-6 14 -4 24 5 10 8 15 9 11 2 -4 -6 -1 -14 5 -16 10 -4 10 -7 1 -14 -9 -6 -6
-12 10 -22 21 -14 21 -13 7 5 -14 17 -13 18 1 7 9 -7 20 -9 24 -5 5 4 5 2 2
-5 -11 -18 3 -43 25 -43 17 0 18 -3 8 -15 -12 -14 -7 -20 14 -16 5 1 4 -4 -2
-12 -7 -8 -8 -18 -4 -22 4 -5 1 -5 -5 -1 -7 4 -13 2 -13 -3 0 -6 5 -11 12 -11
6 0 8 -3 5 -6 -4 -4 -15 -1 -24 7 -10 7 -15 9 -10 4 4 -4 0 -16 -9 -26 -9 -11
-14 -25 -10 -35 5 -14 4 -15 -9 -4 -13 10 -15 9 -15 -8 0 -11 -7 -26 -17 -33
-15 -13 -15 -12 -4 11 11 24 11 24 -4 5 -8 -11 -13 -25 -11 -31 3 -7 -2 -15
-10 -18 -10 -4 -13 -2 -8 6 4 7 -6 2 -23 -10 -17 -12 -35 -22 -41 -22 -16 0
-5 -51 15 -67 10 -8 12 -11 4 -7 -10 5 -12 3 -7 -5 5 -7 15 -10 24 -6 9 3 13
3 9 -1 -4 -4 1 -13 11 -21 16 -12 15 -13 -3 -7 -20 7 -20 7 0 -9 10 -8 26 -12
34 -9 10 4 11 7 3 10 -7 2 -12 8 -12 13 0 5 9 4 19 -3 15 -9 17 -15 9 -25 -8
-11 -7 -12 7 -7 12 5 16 4 12 -3 -4 -6 0 -13 8 -17 8 -3 15 -1 15 5 0 6 8 18
18 27 10 10 13 13 6 9 -7 -5 -15 -2 -20 5 -4 7 -4 10 1 6 4 -4 16 2 26 14 21
23 25 43 8 32 -8 -5 -9 -2 -2 11 6 10 8 27 5 38 -4 15 -2 18 9 12 8 -5 6 1 -4
12 -12 14 -15 23 -7 28 5 3 7 11 4 17 -4 7 -2 8 5 4 6 -4 14 0 17 8 3 9 10 14
15 11 4 -3 6 3 4 14 -2 13 1 18 9 15 8 -3 16 4 19 16 4 15 10 19 19 14 10 -6
11 -5 1 7 -10 12 -8 15 8 16 12 1 17 -2 12 -10 -3 -7 4 -3 17 8 13 11 20 15
17 9 -4 -7 0 -15 9 -18 9 -4 13 -2 8 5 -4 8 0 7 15 0 22 -12 30 -27 9 -16 -7
4 -5 0 4 -8 10 -8 15 -17 11 -20 -12 -13 13 -7 26 5 11 11 13 10 9 -2 -4 -11
2 -15 18 -15 21 0 22 1 8 12 -14 10 -12 11 12 9 21 -2 29 -9 29 -22 0 -12 7
-18 17 -18 14 1 16 -2 7 -17 -7 -14 -7 -19 2 -17 6 2 13 -4 14 -13 2 -9 -3
-16 -11 -16 -7 0 -10 5 -7 11 4 7 2 8 -5 1 -6 -5 -14 -25 -17 -43 -4 -26 -2
-32 7 -26 7 4 1 -6 -14 -23 -27 -28 -36 -52 -20 -54 4 0 15 -2 25 -4 13 -2 17
1 13 11 -3 8 -1 14 4 14 6 0 10 -10 10 -22 0 -18 2 -20 9 -8 6 8 7 18 4 24 -3
5 -1 6 6 2 6 -4 9 -12 6 -17 -11 -17 8 -9 21 8 9 14 10 21 1 32 -9 12 -9 13 1
7 6 -4 12 -3 12 3 0 5 -4 12 -9 15 -10 7 -9 25 2 43 4 6 1 14 -5 16 -10 4 -9
6 1 6 11 1 11 4 0 18 -12 15 -12 16 3 10 13 -4 15 -2 11 10 -5 13 2 15 45 11
35 -3 49 -1 45 6 -4 6 1 5 10 -3 12 -9 17 -10 17 -2 0 7 5 9 11 6 6 -4 9 0 7
10 -2 10 3 20 11 23 8 2 11 0 8 -5 -3 -5 0 -10 8 -10 8 0 12 3 10 7 -2 3 5 6
15 6 11 0 16 -5 12 -15 -4 -10 -1 -12 9 -6 12 7 12 6 1 -7 -10 -13 -10 -18 -1
-24 8 -4 9 -3 5 4 -4 7 -3 12 2 12 13 0 23 -28 12 -35 -9 -6 -8 -24 3 -42 9
-14 -3 -17 -19 -5 -5 4 -1 -1 10 -11 10 -9 19 -30 19 -45 0 -15 2 -21 4 -14 3
6 12 12 21 12 15 0 15 -2 2 -10 -10 -6 -11 -10 -2 -10 6 0 12 -7 12 -16 0 -8
-4 -12 -10 -9 -17 11 -11 -7 8 -21 15 -13 15 -14 0 -8 -9 3 -27 -1 -40 -10
-26 -18 -17 -21 15 -5 l22 12 -20 -20 c-11 -11 -23 -19 -27 -16 -5 2 -8 -1 -8
-6 0 -6 6 -11 13 -11 8 0 7 -3 -3 -10 -13 -8 -13 -11 -1 -22 10 -9 12 -10 7
-1 -5 9 -2 11 8 7 9 -3 13 -11 10 -16 -5 -7 0 -7 12 0 15 8 24 7 39 -6 19 -16
19 -16 6 1 -12 15 -11 17 5 14 11 -1 25 -6 32 -10 6 -5 12 -4 12 1 0 5 7 9 15
9 8 0 15 -4 15 -9 0 -5 5 -6 10 -3 6 4 7 12 3 18 -4 7 1 6 10 -2 15 -12 17
-12 11 4 -5 12 -4 16 3 12 12 -8 12 11 0 29 -3 6 -3 14 0 18 13 12 11 35 -3
47 -8 6 -11 16 -8 21 3 5 -3 4 -14 -3 -12 -7 -18 -18 -15 -24 3 -5 -6 1 -19
15 -14 14 -23 27 -21 30 3 3 11 -4 19 -14 8 -11 14 -15 14 -8 0 6 -9 17 -20
25 -11 8 -17 17 -13 21 14 14 11 35 -5 29 -10 -4 -13 -2 -8 5 5 8 0 12 -14 12
-12 0 -19 4 -16 8 10 17 15 62 5 57 -5 -4 -9 -1 -9 4 0 6 6 11 13 11 8 0 7 4
-3 10 -14 9 -13 11 10 14 14 1 17 13 6 23 -5 5 -6 2 -1 -6 5 -10 4 -12 -4 -7
-16 10 -4 26 14 19 11 -4 13 -1 9 11 -4 11 -1 16 11 16 10 0 13 4 9 12 -5 9
-2 8 9 -1 16 -12 17 -12 11 5 -6 16 -5 17 7 7 16 -15 33 -17 24 -3 -3 6 1 7 9
4 9 -3 13 -11 10 -18 -3 -6 1 -3 9 6 8 10 18 14 22 10 5 -4 5 1 2 11 -4 10 -3
16 2 13 5 -3 12 1 15 10 3 8 10 13 15 9 6 -3 8 -12 4 -20 -3 -8 0 -15 7 -15 6
0 8 -4 5 -10 -4 -6 1 -7 12 -3 10 3 15 3 11 -2 -4 -4 -3 -14 3 -22 9 -10 8
-13 -1 -13 -10 0 -10 -3 -1 -14 6 -8 10 -20 9 -27 -2 -8 5 -13 14 -13 10 1 14
-4 11 -12 -3 -8 0 -14 7 -14 6 0 8 -5 5 -10 -3 -6 -15 -10 -25 -10 -14 0 -18
-6 -15 -25 1 -14 6 -29 10 -33 5 -4 5 2 1 12 -7 20 -7 20 15 0 12 -10 19 -13
15 -6 -9 16 6 16 23 0 11 -10 13 -10 7 0 -5 8 0 12 14 12 14 0 19 -4 14 -12
-6 -10 -5 -10 8 -1 8 7 18 10 21 6 4 -3 7 -1 7 6 0 7 4 10 9 6 6 -3 8 3 6 14
-2 14 1 18 11 14 8 -3 14 0 14 7 0 6 5 8 10 5 6 -3 10 -1 10 4 0 6 -5 11 -10
11 -7 0 -7 6 0 20 8 15 8 20 -1 20 -6 0 -9 8 -7 18 4 15 -1 18 -33 18 -21 0
-36 -3 -33 -8 3 -4 0 -8 -5 -8 -6 0 -11 5 -11 10 0 6 -7 10 -16 10 -9 0 -14 6
-11 13 2 6 -7 25 -20 41 -17 20 -21 31 -13 36 9 6 9 9 -1 13 -8 3 -9 6 -3 6 5
1 9 14 8 30 -1 18 4 32 13 35 8 3 12 2 9 -3 -3 -5 1 -11 9 -15 8 -3 15 -1 15
5 0 6 5 7 12 3 7 -5 9 -2 5 8 -5 15 40 65 55 60 4 -1 5 4 2 12 -3 8 0 17 7 22
8 4 10 3 5 -4 -4 -7 -2 -12 3 -12 6 0 11 5 11 11 0 8 5 8 15 -1 10 -8 15 -9
15 -2 0 15 32 3 47 -17 7 -10 8 -18 1 -22 -5 -4 -3 -9 7 -12 9 -4 14 -3 11 2
-3 5 1 12 9 15 9 3 18 -1 22 -10 5 -13 7 -13 14 -2 7 10 9 9 9 -4 0 -10 -5
-18 -12 -18 -6 0 -8 -3 -5 -6 4 -4 13 -1 21 5 13 11 15 9 11 -9 -3 -17 0 -21
14 -17 14 3 17 0 13 -19 -2 -14 0 -24 7 -24 7 0 9 -5 6 -10 -4 -6 -11 -8 -16
-5 -5 3 -6 -1 -3 -9 3 -8 12 -17 20 -20 9 -3 12 -1 9 4 -3 6 -2 10 4 10 5 0
12 -6 15 -12 5 -10 7 -10 12 0 4 9 10 10 18 3 16 -14 58 8 71 37 5 12 13 22
18 22 4 0 5 -5 1 -12 -4 -7 -3 -8 4 -4 6 4 9 13 6 21 -4 8 -10 13 -14 10 -5
-3 -12 0 -16 6 -5 8 -3 9 6 4 10 -6 12 -4 7 8 -4 10 -2 14 7 11 7 -3 13 2 13
10 0 8 -4 13 -9 10 -13 -8 -10 10 5 25 10 11 9 13 -5 8 -9 -3 -22 1 -30 11
-12 15 -11 16 4 4 11 -9 18 -10 23 -2 4 6 3 10 -2 9 -4 -1 -10 0 -13 1 -12 6
-109 6 -105 0 2 -3 -10 -4 -27 -2 -24 4 -29 2 -23 -9 5 -8 -1 -5 -13 5 -12 11
-22 25 -22 33 0 7 -4 13 -9 13 -5 0 -17 3 -27 7 -13 5 -15 3 -9 -8 4 -8 -1 -5
-12 6 -19 20 -25 87 -9 113 3 6 2 13 -4 17 -17 10 -11 28 6 21 13 -5 14 -3 6
6 -7 9 -6 17 4 26 11 10 14 10 15 0 0 -7 4 -4 8 7 5 12 4 23 -3 27 -14 10 5
43 25 43 8 0 20 4 28 9 10 6 12 5 7 -2 -4 -7 -1 -12 8 -12 8 0 17 6 19 13 3 7
6 5 6 -5 1 -12 6 -15 18 -11 9 4 14 2 11 -3 -6 -10 16 -35 29 -33 5 0 14 6 22
12 11 9 13 9 8 0 -5 -8 2 -11 24 -9 19 1 35 10 41 22 9 16 8 17 -3 6 -7 -6
-18 -12 -23 -12 -7 0 -8 3 -1 8 15 11 42 47 29 39 -6 -3 -17 3 -24 14 -14 18
-37 28 -26 11 3 -5 -1 -9 -9 -9 -8 0 -12 4 -9 9 3 4 0 8 -5 8 -6 0 -11 -5 -11
-11 0 -6 -7 -3 -16 6 -15 15 -18 15 -41 -1 -14 -9 -23 -12 -19 -6 3 5 -1 12
-9 15 -10 4 -12 1 -9 -11 3 -9 -1 -6 -9 7 -11 18 -16 20 -20 10 -3 -8 -6 -1
-6 15 -1 24 -3 27 -16 16 -9 -7 -18 -10 -22 -6 -3 3 -1 6 5 6 7 0 12 7 12 15
0 8 -5 15 -12 15 -6 0 -8 3 -5 7 4 3 2 12 -5 20 -8 10 -8 12 3 8 10 -4 14 4
14 29 0 19 -3 32 -6 30 -4 -2 -10 3 -13 12 -4 10 -2 13 6 8 8 -5 9 -2 4 11 -6
16 -4 16 11 4 10 -7 15 -9 11 -5 -4 5 -2 16 5 24 10 13 9 15 -3 8 -9 -4 -8 -2
2 7 10 8 14 18 10 23 -4 4 0 3 10 -4 12 -10 18 -10 24 -1 4 8 3 9 -4 5 -7 -4
-12 -2 -12 3 0 15 12 14 38 -5 12 -8 22 -10 22 -5 0 6 -5 11 -11 11 -5 0 -7 5
-4 11 5 7 13 5 24 -5 15 -14 19 -14 35 2 11 9 16 11 12 5 -4 -7 -2 -13 3 -13
6 0 11 5 11 11 0 6 7 3 16 -5 18 -18 34 -21 34 -5 0 5 -4 8 -9 4 -5 -3 -12 -1
-15 3 -7 12 41 9 51 -2 5 -5 2 -6 -6 -1 -9 5 -12 4 -7 -3 11 -18 26 -14 26 6
1 16 1 16 11 0 5 -10 15 -18 22 -18 8 0 8 3 -1 9 -11 7 -11 9 2 14 9 4 16 -1
19 -11 3 -12 5 -11 6 6 0 12 5 22 11 22 5 0 7 -8 4 -17 -3 -10 1 -7 10 7 14
23 13 26 -1 37 -15 12 -15 13 3 13 14 0 16 2 6 9 -11 6 -11 17 -4 45 6 21 7
34 1 31 -5 -4 -9 -1 -9 5 0 7 -7 10 -17 6 -16 -5 -16 -5 -2 6 13 11 8 13 -33
13 -26 0 -48 -4 -48 -8 0 -5 5 -5 12 -1 7 4 8 3 4 -5 -6 -9 -11 -9 -24 1 -12
10 -14 10 -8 1 4 -8 1 -13 -9 -13 -9 0 -13 -5 -10 -10 4 -6 11 -7 17 -4 7 4 8
2 4 -4 -4 -6 -14 -8 -23 -5 -12 5 -15 2 -10 -9 6 -17 -17 -33 -40 -29 -7 1
-13 -3 -13 -10 0 -8 -4 -9 -13 0 -10 7 -17 7 -24 0 -14 -14 -36 -2 -26 14 4 7
0 6 -10 -2 -9 -7 -17 -10 -17 -6 0 4 -8 1 -17 -6 -11 -10 -14 -10 -9 -1 8 13
-19 13 -42 -1 -7 -5 -14 -2 -18 7 -3 9 -9 14 -13 11 -11 -6 -8 37 3 54 6 9 5
12 -1 8 -5 -3 -15 3 -23 13 -8 10 -18 16 -23 13 -5 -3 -4 3 2 14 7 14 7 23 -2
32 -9 9 -9 14 -1 19 16 10 -1 52 -21 52 -9 0 -13 5 -9 11 4 7 -1 7 -16 -1 -21
-11 -22 -10 -18 8 4 16 2 19 -10 15 -11 -5 -14 -2 -9 10 4 12 2 14 -10 10 -11
-4 -14 -2 -9 5 4 7 1 12 -10 12 -14 0 -15 2 -3 17 10 11 10 14 2 9 -8 -4 -13
-2 -13 4 0 6 -4 9 -9 6 -5 -3 -12 5 -15 19 -6 24 -36 36 -36 15 0 -6 -10 -2
-22 9 l-21 21 27 25 c15 14 21 25 14 25 -8 0 -9 3 -3 8 6 4 10 14 10 22 0 8 6
14 14 12 12 -3 12 0 1 13 -11 13 -10 15 4 9 12 -5 15 -2 9 12 -5 14 -3 16 11
11 9 -4 15 -3 12 2 -3 5 1 12 10 15 10 4 14 12 10 22 -4 11 -2 15 8 11 9 -4
13 -1 10 6 -3 8 9 12 35 12 21 0 37 -3 34 -7 -2 -5 1 -8 6 -8 6 0 11 7 11 16
0 8 4 13 8 10 5 -3 9 1 9 9 0 8 -5 12 -10 8 -5 -3 -4 4 2 16 10 18 9 22 -6 28
-31 12 -43 29 -30 42 6 6 9 11 6 12 -2 0 -12 2 -22 4 -9 2 -15 -1 -11 -6 3 -5
1 -9 -5 -9 -5 0 -12 6 -14 13 -4 10 -6 10 -6 0 -1 -7 -5 -13 -10 -13 -6 0 -8
9 -6 20 2 11 -1 19 -8 17 -6 -1 -11 4 -12 11 0 15 -26 33 -37 26 -4 -3 -13
-14 -19 -26 -9 -16 -8 -19 3 -13 7 3 5 0 -4 -8 -10 -8 -16 -16 -13 -19 3 -2 6
-28 8 -56 2 -50 -9 -69 -36 -63 -5 1 -6 -3 -2 -9 4 -6 12 -7 19 -3 7 4 3 0 -7
-9 -11 -10 -16 -18 -12 -18 4 0 1 -8 -6 -17 -10 -11 -10 -14 -1 -9 6 4 12 2
12 -3 0 -6 -4 -11 -10 -11 -5 0 -10 -5 -10 -11 0 -5 5 -7 12 -3 7 4 8 3 4 -4
-4 -7 -16 -12 -26 -12 -13 0 -18 -6 -15 -19 2 -13 -2 -18 -13 -16 -9 1 -29 -1
-44 -6 -16 -4 -28 -4 -28 1 0 4 -7 7 -16 6 -9 0 -19 6 -21 14 -4 13 -3 13 6 0
7 -10 11 -11 11 -3 0 7 -10 17 -21 24 -12 6 -19 7 -15 1 3 -6 -10 -6 -34 -2
-22 4 -40 5 -40 1 0 -3 -4 1 -10 9 -6 9 -5 20 3 29 9 12 9 13 0 8 -9 -6 -11 1
-8 23 2 16 0 30 -5 30 -17 0 1 27 24 38 17 7 27 7 35 -1 8 -8 9 -5 6 11 -3 15
0 19 11 15 11 -4 15 0 12 13 -2 11 -7 22 -13 27 -6 4 -4 11 5 18 12 8 10 9 -9
4 -18 -6 -22 -4 -15 6 6 12 5 12 -9 0 -9 -7 -17 -9 -17 -4 0 6 -17 10 -37 10
-26 0 -37 4 -35 13 2 8 -3 10 -13 6 -9 -3 -13 -2 -10 4 3 6 1 10 -4 10 -6 0
-11 -4 -11 -10 0 -5 -6 -9 -12 -7 -8 1 -12 -6 -10 -16 2 -10 -2 -16 -10 -15
-6 2 -12 -6 -13 -17 0 -11 7 -20 15 -20 8 -1 14 -6 13 -13 -3 -11 10 -17 31
-13 5 1 4 -4 -2 -12 -7 -8 -8 -18 -4 -23 4 -4 -1 -2 -11 5 -15 12 -17 12 -11
-3 3 -9 10 -16 15 -16 5 0 9 -5 9 -11 0 -5 -6 -7 -12 -3 -8 5 -7 0 2 -11 14
-17 13 -18 -3 -12 -12 5 -16 3 -11 -5 5 -8 2 -9 -9 -5 -9 3 -19 1 -23 -5 -4
-6 -3 -8 4 -4 6 3 13 3 16 -2 3 -5 -13 -8 -34 -8 -21 0 -37 4 -34 7 6 10 -38
5 -55 -6 -9 -5 -12 -4 -8 2 9 14 -45 24 -58 12 -7 -7 -4 -8 8 -4 10 4 17 2 17
-5 0 -6 5 -8 12 -4 7 4 8 3 4 -5 -6 -8 -12 -9 -20 -2 -7 6 -15 9 -18 6 -3 -3
-13 5 -24 17 -19 22 -19 22 0 8 19 -15 19 -14 2 13 -17 24 -36 41 -21 17 3 -5
1 -10 -4 -10 -6 0 -11 10 -12 23 0 12 -2 41 -3 64 -2 24 0 41 4 38 3 -2 7 2 7
10 0 8 -3 12 -7 10 -3 -2 -6 14 -6 35 1 21 4 36 9 33 4 -2 7 1 7 7 0 6 5 8 13
4 7 -5 6 0 -3 11 -9 11 -10 16 -2 11 7 -4 12 -2 12 4 0 6 6 8 13 4 6 -4 3 2
-7 14 -21 24 -32 29 -20 10 5 -7 2 -9 -8 -5 -9 3 -20 1 -26 -5 -6 -6 -12 -6
-17 3 -6 8 -4 10 5 4 9 -5 11 -4 6 4 -4 6 -13 8 -19 4 -18 -11 -49 -14 -43 -5
3 5 -1 9 -9 9 -8 0 -11 -5 -8 -10 4 -6 -2 -8 -15 -5 -14 4 -26 -1 -38 -17 -10
-13 -22 -21 -28 -18 -5 4 -7 0 -3 -9 3 -9 0 -21 -6 -27 -8 -8 -8 -11 0 -11 6
0 19 -3 29 -7 13 -5 15 -3 9 7 -5 8 -4 11 3 6 5 -3 12 -1 14 6 3 9 6 9 12 0 4
-7 2 -12 -3 -12 -6 0 -11 -5 -11 -11 0 -5 4 -7 10 -4 9 6 15 -30 11 -63 -1 -8
7 -16 17 -19 15 -3 21 -15 24 -44 2 -21 1 -39 -2 -39 -3 0 -5 -21 -5 -47 0
-42 -2 -47 -28 -54 -22 -6 -26 -5 -18 5 8 9 7 13 -4 13 -8 0 -12 -4 -10 -7 3
-4 -7 -20 -20 -34 -14 -15 -25 -21 -25 -14 0 10 -2 10 -9 0 -4 -8 -12 -13 -17
-13 -5 1 -9 -4 -9 -11 0 -6 -8 -12 -17 -14 -10 -1 -18 2 -18 7 0 6 -4 7 -10 4
-9 -6 -14 8 -11 28 1 5 -3 6 -9 2 -5 -3 -10 0 -10 8 0 8 -8 21 -17 28 -17 13
-17 13 -3 -5 9 -12 10 -17 3 -12 -7 4 -18 16 -24 28 -8 14 -8 18 0 14 7 -5 9
-1 5 8 -3 9 -10 13 -15 10 -5 -3 -5 5 0 19 6 16 6 28 -1 35 -6 6 -6 12 3 17 8
5 10 4 5 -3 -4 -7 -3 -12 2 -12 6 0 13 7 16 16 3 8 2 13 -3 9 -5 -3 -14 7 -20
22 -8 19 -10 21 -7 6 3 -15 0 -20 -10 -16 -8 3 -11 10 -7 16 3 6 1 7 -5 3 -6
-3 -9 -15 -7 -26 2 -11 -1 -23 -7 -26 -7 -4 -8 -2 -4 4 4 7 2 12 -3 12 -10 0
-15 -14 -12 -32 0 -5 -5 -8 -13 -8 -8 0 -17 -7 -20 -16 -4 -10 -2 -13 7 -8 9
5 8 3 -1 -7 -11 -12 -14 -12 -23 1 -7 11 -8 8 -5 -12 2 -15 -1 -29 -7 -32 -7
-3 -2 -3 11 0 14 3 22 1 22 -8 0 -10 3 -9 10 2 6 10 10 11 10 3 0 -7 5 -13 11
-13 5 0 8 4 5 8 -3 5 1 9 8 9 8 0 12 -6 9 -14 -3 -7 2 -13 11 -13 10 0 13 -5
9 -17 -4 -11 -3 -14 5 -9 11 7 17 -6 13 -28 -1 -5 5 -6 14 -3 8 4 15 2 15 -4
0 -6 4 -8 9 -5 5 3 8 -2 7 -12 -1 -23 -26 -32 -51 -19 -19 10 -19 9 -5 -8 8
-11 10 -16 3 -11 -7 4 -21 2 -30 -4 -16 -10 -16 -11 2 -6 20 6 20 6 1 -9 -11
-8 -23 -15 -28 -15 -4 0 -7 -6 -5 -12 1 -7 -6 -12 -15 -12 -14 1 -16 -2 -7
-17 7 -15 7 -19 -3 -17 -7 2 -12 -4 -10 -12 2 -8 0 -12 -4 -8 -4 4 -13 0 -21
-10 -8 -9 -12 -11 -8 -4 3 6 2 12 -4 12 -5 0 -12 -6 -15 -12 -5 -10 -7 -10
-12 0 -3 6 -11 9 -17 5 -7 -4 -7 0 1 9 11 14 10 16 -7 11 -13 -3 -21 -1 -21 7
0 8 -8 10 -21 7 -15 -4 -18 -2 -10 7 7 8 5 12 -10 13 -12 1 -17 -3 -13 -9 4
-6 2 -8 -4 -4 -6 3 -9 16 -7 28 3 11 2 18 -2 15 -3 -4 -14 3 -25 15 -16 19
-17 23 -3 38 14 15 13 18 -2 32 -10 8 -24 13 -32 10 -9 -3 -11 0 -6 8 6 10 3
12 -10 6 -14 -5 -15 -4 -7 7 8 10 6 13 -9 14 -14 1 -19 -3 -15 -12 3 -10 0
-12 -11 -8 -10 4 -14 2 -10 -4 4 -6 0 -13 -8 -17 -8 -3 -15 -10 -15 -16 0 -6
5 -8 12 -4 6 4 8 3 4 -4 -3 -6 -16 -9 -27 -7 -17 4 -19 2 -8 -11 10 -12 9 -13
-4 -8 -12 4 -15 1 -12 -15 3 -19 2 -20 -18 -9 -20 10 -21 10 -8 -5 11 -15 11
-17 -1 -17 -7 0 -14 -9 -15 -20 -1 -11 2 -18 8 -15 5 4 9 1 9 -5 0 -6 5 -8 12
-4 7 5 9 1 6 -13 -3 -11 0 -20 6 -21 6 0 35 -3 63 -5 34 -3 51 -1 47 5 -4 6 0
6 13 0 13 -7 25 -7 38 0 11 6 17 7 12 3 -4 -5 5 -15 20 -22 27 -12 27 -13 3
-8 -14 3 -19 2 -12 -1 6 -3 10 -9 7 -13 -2 -5 7 -6 22 -3 20 4 24 2 18 -9 -6
-11 -5 -11 5 -2 10 9 15 9 25 0 17 -18 39 -61 27 -53 -6 3 -13 2 -16 -3 -4 -5
2 -12 11 -14 17 -4 17 -5 1 -6 -20 -1 -24 -20 -8 -39 6 -6 7 -10 4 -7 -11 7
-43 -14 -55 -36 -8 -15 -8 -19 0 -15 6 4 11 2 11 -4 0 -6 5 -8 12 -4 7 5 8 3
4 -5 -5 -7 -14 -10 -22 -7 -8 3 -14 -1 -14 -10 0 -10 -6 -14 -15 -10 -8 3 -15
0 -15 -7 0 -8 -4 -6 -10 3 -9 13 -10 13 -10 0 0 -9 -3 -11 -8 -5 -13 18 -35
17 -28 -1 5 -14 4 -15 -9 -4 -8 7 -15 9 -15 5 0 -4 -7 -2 -16 5 -18 16 -41 55
-26 46 5 -3 10 6 10 20 0 13 -3 22 -6 20 -3 -3 -12 0 -20 7 -13 9 -14 9 -8 0
4 -8 1 -13 -9 -13 -10 0 -14 5 -10 13 4 6 0 4 -8 -5 -8 -10 -18 -14 -23 -10
-4 4 -2 -2 6 -12 8 -11 10 -17 4 -13 -7 4 -15 0 -18 -9 -3 -8 -10 -13 -15 -10
-5 3 -9 -15 -9 -40 -1 -24 -4 -49 -7 -54 -3 -6 1 -7 9 -4 9 3 16 1 16 -5 0 -6
-6 -11 -12 -11 -10 0 -9 -3 1 -9 7 -5 23 -6 35 -4 18 4 19 3 6 -7 -13 -10 -12
-11 3 -6 10 3 21 6 23 6 3 0 2 4 -1 10 -4 6 1 7 11 3 11 -4 15 -3 11 4 -5 8 1
7 17 0 13 -7 22 -15 20 -19 -3 -4 2 -5 10 -2 9 3 14 9 11 13 -2 4 2 8 10 8 8
0 15 -7 15 -14 0 -8 5 -11 10 -8 6 4 8 12 4 18 -3 7 1 4 9 -5 8 -10 25 -18 38
-19 22 0 23 -1 4 -9 -12 -5 -14 -9 -6 -9 11 -1 10 -5 -5 -17 -10 -8 -14 -13
-8 -10 7 3 15 -1 18 -10 3 -8 2 -12 -3 -9 -5 3 -12 1 -16 -5 -5 -9 7 -14 26
-12 4 1 2 -9 -4 -23 -7 -13 -15 -21 -19 -19 -4 3 -5 -2 -2 -10 3 -9 10 -14 14
-11 5 3 12 0 16 -6 4 -8 3 -9 -4 -5 -11 6 -17 -18 -13 -46 0 -4 -7 -4 -16 -1
-11 4 -14 3 -9 -5 5 -8 -1 -12 -16 -12 -18 0 -20 -2 -8 -10 8 -5 12 -10 8 -11
-5 -1 -11 -2 -15 -3 -5 -1 -14 -5 -21 -9 -7 -5 -12 -3 -12 5 0 10 -2 10 -9 -1
-6 -9 -10 -10 -16 -2 -5 9 -11 9 -23 -1 -12 -10 -14 -10 -8 0 4 6 3 12 -3 12
-5 0 -12 -6 -14 -12 -4 -10 -8 -9 -16 2 -8 12 -11 12 -11 1 0 -11 -3 -11 -15
-1 -12 10 -15 10 -15 0 0 -9 -4 -9 -17 1 -15 12 -16 12 -9 -5 7 -20 6 -20 -14
-1 -11 10 -19 24 -16 31 3 9 -1 11 -11 7 -12 -5 -14 -3 -8 7 6 10 4 12 -10 6
-15 -5 -16 -4 -5 9 7 8 8 15 3 15 -12 0 -11 83 2 92 7 5 6 8 -1 8 -13 0 -15
31 -2 47 5 6 5 14 0 17 -10 6 -9 62 1 72 4 4 2 14 -5 21 -9 11 -9 16 1 23 9 5
10 10 2 14 -6 4 -11 12 -11 17 0 6 6 7 13 3 9 -6 9 -5 0 7 -14 17 -14 30 -2
46 6 6 6 14 1 17 -10 6 -9 82 1 92 4 4 1 14 -6 22 -9 12 -9 16 0 19 10 4 10
10 2 25 -8 16 -8 23 2 29 8 5 9 9 3 9 -13 0 -15 31 -2 47 5 6 5 14 0 17 -10 6
-9 62 1 72 4 4 2 14 -5 21 -9 11 -9 16 2 23 10 6 11 13 4 22 -12 15 -12 48 -1
65 4 6 4 14 -1 17 -10 6 -9 82 1 92 4 4 1 14 -6 22 -9 12 -9 16 0 19 10 4 10
10 2 25 -8 16 -8 23 2 29 8 5 9 9 3 9 -13 0 -15 31 -2 47 5 6 5 14 0 17 -10 6
-9 62 1 72 4 4 2 14 -5 21 -9 11 -9 16 2 23 10 6 11 13 4 22 -12 15 -12 48 -1
65 4 6 3 14 -2 17 -5 3 -7 19 -6 36 2 29 1 30 -36 30 l-39 0 0 -1300z m1723
977 c-5 -8 -8 -7 -11 1 -2 7 -9 9 -14 6 -7 -4 -8 -2 -4 4 4 6 13 9 21 6 8 -4
12 -11 8 -17z m-438 -35 c-3 -3 -11 0 -18 7 -9 10 -8 11 6 5 10 -3 15 -9 12
-12z m89 -11 c4 -5 -3 -7 -14 -4 -23 6 -26 13 -6 13 8 0 17 -4 20 -9z m-104
-16 c0 -2 -6 -5 -13 -8 -8 -3 -14 1 -14 8 0 7 6 11 14 8 7 -3 13 -6 13 -8z
m88 -140 c-3 -3 -9 2 -12 12 -6 14 -5 15 5 6 7 -7 10 -15 7 -18z m-1005 -177
c-8 -14 -19 -8 -20 12 -1 16 1 17 12 7 7 -6 11 -15 8 -19z m25 -513 c-3 -3 -9
2 -12 12 -6 14 -5 15 5 6 7 -7 10 -15 7 -18z m1696 -223 c3 -5 -1 -9 -9 -9 -8
0 -12 4 -9 9 3 4 7 8 9 8 2 0 6 -4 9 -8z m-1561 -337 c-3 -9 -8 -14 -10 -11
-3 3 -2 9 2 15 9 16 15 13 8 -4z m1617 -25 c0 -4 -7 -7 -15 -6 -23 3 -26 12
-5 13 11 1 20 -2 20 -7z m-1715 -126 c9 -15 12 -23 6 -20 -11 7 -35 46 -28 46
3 0 12 -12 22 -26z m1735 -8 c0 -2 -7 -9 -15 -16 -13 -11 -14 -10 -9 4 5 14
24 23 24 12z m-455 -86 c3 -6 -1 -7 -9 -4 -18 7 -21 14 -7 14 6 0 13 -4 16
-10z m-360 -139 c3 -5 2 -12 -3 -15 -5 -3 -9 1 -9 9 0 17 3 19 12 6z"/>
<path d="M1326 2263 c-6 -14 -5 -15 5 -6 7 7 10 15 7 18 -3 3 -9 -2 -12 -12z"/>
<path d="M1943 1872 c5 -19 3 -21 -9 -11 -12 10 -13 9 -8 -5 4 -10 0 -18 -10
-22 -9 -3 -13 -11 -9 -17 4 -6 0 -8 -10 -4 -11 4 -14 2 -11 -7 3 -8 0 -17 -7
-22 -8 -5 -10 -3 -4 7 5 8 4 11 -1 6 -5 -5 -10 -13 -10 -18 -1 -5 -2 -14 -3
-20 0 -5 -7 -7 -13 -3 -9 6 -9 3 1 -9 10 -12 18 -14 32 -7 10 6 22 9 26 8 10
-4 53 38 47 46 -2 4 2 2 8 -4 15 -13 31 -13 23 0 -3 6 1 7 9 4 14 -5 18 1 15
22 0 4 4 10 10 13 6 4 2 12 -10 20 -12 7 -18 8 -14 2 3 -6 4 -11 1 -11 -3 0
-13 12 -21 28 -10 16 -14 19 -11 7 l6 -20 -16 20 c-16 20 -16 20 -11 -3z m64
-47 c0 -8 -4 -15 -9 -15 -10 0 -11 14 -1 23 9 10 10 9 10 -8z"/>
<path d="M453 1665 c0 -8 4 -15 9 -15 4 0 8 4 8 9 0 6 -4 12 -8 15 -5 3 -9 -1
-9 -9z"/>
<path d="M290 1489 c0 -5 5 -7 10 -4 6 3 10 8 10 11 0 2 -4 4 -10 4 -5 0 -10
-5 -10 -11z"/>
<path d="M246 1382 c-3 -5 1 -9 9 -9 8 0 12 4 9 9 -3 4 -7 8 -9 8 -2 0 -6 -4
-9 -8z"/>
<path d="M150 965 c-9 -10 -9 -15 -1 -15 6 0 11 5 11 11 0 5 5 7 12 3 7 -4 8
-3 4 4 -9 15 -11 15 -26 -3z"/>
<path d="M1745 740 c-3 -5 -2 -10 4 -10 5 0 13 5 16 10 3 6 2 10 -4 10 -5 0
-13 -4 -16 -10z"/>
<path d="M980 370 c-8 -5 -12 -12 -9 -15 4 -3 12 1 19 10 14 17 11 19 -10 5z"/>
</g>
</svg>
